<svg xmlns="http://www.w3.org/2000/svg" version="1.1" viewBox="84.3 419.07 1030.22 97.75">
<defs/><!--ITEM: Text 1--><g transform="translate(285.0 207.0) rotate(0.0 508.0 252.5)  scale(1.0 1.0)"><svg width="1016.0" height="505.0" viewBox="0.0 0.0 1016.0 505.0"><g transform="translate(133 133)">
      <path fill="#E5261F" stroke="#E5261F" d="M130.74 79.07L130.74 79.07Q138.59 79.07 142.84 80.73Q147.10 82.39 150.16 84.26L150.16 84.26Q151.75 85.19 152.75 85.65Q153.75 86.12 154.68 86.12L154.68 86.12Q156.01 86.12 156.61 84.65Q157.21 83.19 157.61 80.27L157.61 80.27L160.66 80.27Q160.53 82.79 160.33 86.32Q160.13 89.84 160.07 95.56Q160.00 101.28 160.00 110.59L160.00 110.59L156.94 110.59Q156.41 103.67 153.75 97.16Q151.09 90.64 146.23 86.45Q141.38 82.26 134.33 82.26L134.33 82.26Q127.95 82.26 123.82 85.85Q119.70 89.44 119.70 95.83L119.70 95.83Q119.70 101.15 122.36 104.94Q125.02 108.73 130.14 112.32Q135.26 115.91 142.58 120.96L142.58 120.96Q148.96 125.09 154.01 129.21Q159.07 133.33 162.13 138.52Q165.19 143.71 165.19 150.89L165.19 150.89Q165.19 159.67 160.60 165.39Q156.01 171.10 148.56 173.96Q141.11 176.82 132.20 176.82L132.20 176.82Q123.96 176.82 119.03 175.23Q114.11 173.63 110.79 171.90L110.79 171.90Q107.86 170.04 106.27 170.04L106.27 170.04Q104.94 170.04 104.34 171.50Q103.74 172.97 103.34 175.89L103.34 175.89L100.28 175.89Q100.55 172.70 100.61 168.44Q100.68 164.19 100.75 157.34Q100.81 150.49 100.81 139.98L100.81 139.98L103.87 139.98Q104.41 148.76 106.87 156.41Q109.33 164.06 114.45 168.71Q119.57 173.37 128.08 173.37L128.08 173.37Q132.73 173.37 136.39 171.70Q140.05 170.04 142.31 166.72Q144.57 163.39 144.57 158.47L144.57 158.47Q144.57 152.88 141.98 148.76Q139.38 144.64 134.93 141.05Q130.47 137.46 124.62 133.73L124.62 133.73Q118.37 129.61 112.92 125.49Q107.46 121.36 104.21 116.04Q100.95 110.72 100.95 103.41L100.95 103.41Q100.95 95.03 105.14 89.64Q109.33 84.26 116.18 81.66Q123.03 79.07 130.74 79.07ZM217.85 80.53L217.85 80.53L250.17 163.79Q252.03 168.58 254.36 170.37Q256.69 172.17 258.55 172.30L258.55 172.30L258.55 174.96Q254.56 174.70 249.18 174.63Q243.79 174.56 238.34 174.56L238.34 174.56Q232.22 174.56 226.76 174.63Q221.31 174.70 218.12 174.96L218.12 174.96L218.12 172.30Q224.90 172.04 226.70 169.97Q228.49 167.91 225.83 161.13L225.83 161.13L203.22 99.28L205.62 95.83L185.40 148.49Q182.48 155.81 181.88 160.46Q181.28 165.12 182.54 167.65Q183.81 170.17 186.67 171.17Q189.53 172.17 193.51 172.30L193.51 172.30L193.51 174.96Q189.13 174.70 185.14 174.63Q181.15 174.56 177.02 174.56L177.02 174.56Q174.10 174.56 171.50 174.63Q168.91 174.70 166.91 174.96L166.91 174.96L166.91 172.30Q169.71 171.77 172.63 168.71Q175.56 165.65 178.35 158.34L178.35 158.34L208.68 80.53Q210.81 80.66 213.27 80.66Q215.73 80.66 217.85 80.53ZM188.86 136.66L227.16 136.66L227.16 139.32L187.53 139.32L188.86 136.66ZM301.38 80.80L301.38 80.80L301.38 83.46Q296.86 83.59 294.53 84.45Q292.20 85.32 291.40 87.65Q290.61 89.97 290.61 94.90L290.61 94.90L290.61 162.46Q290.61 166.58 291.20 168.58Q291.80 170.57 293.60 171.24Q295.39 171.90 298.98 171.90L298.98 171.90L305.50 171.90Q310.02 171.90 314.01 169.77Q318.00 167.65 321.19 163.72Q324.39 159.80 326.51 154.35Q328.64 148.89 329.71 142.24L329.71 142.24L332.77 142.24Q332.37 146.77 332.37 153.95L332.37 153.95Q332.37 157.01 332.50 162.86Q332.63 168.71 333.30 174.96L333.30 174.96Q326.51 174.70 318.00 174.63Q309.49 174.56 302.84 174.56L302.84 174.56Q299.52 174.56 294.33 174.56Q289.14 174.56 283.16 174.63Q277.17 174.70 271.05 174.76Q264.94 174.83 259.48 174.96L259.48 174.96L259.48 172.30Q263.74 172.04 265.87 171.24Q268.00 170.44 268.73 168.05Q269.46 165.65 269.46 160.86L269.46 160.86L269.46 94.90Q269.46 89.97 268.73 87.65Q268.00 85.32 265.80 84.45Q263.61 83.59 259.48 83.46L259.48 83.46L259.48 80.80Q262.81 80.93 268.46 81.06Q274.11 81.20 280.50 81.20L280.50 81.20Q286.35 81.20 292.00 81.06Q297.65 80.93 301.38 80.80ZM424.80 80.80L424.80 80.80L424.80 83.46Q420.55 83.99 418.35 85.65Q416.16 87.31 415.49 90.91Q414.83 94.50 414.83 101.01L414.83 101.01L414.83 136.26Q414.83 144.90 413.63 152.09Q412.43 159.27 409.37 164.45L409.37 164.45Q405.92 170.17 399.27 173.50Q392.62 176.82 382.38 176.82L382.38 176.82Q376.26 176.82 369.87 175.43Q363.49 174.03 358.43 170.17L358.43 170.17Q354.18 166.58 351.92 162.06Q349.66 157.54 348.86 151.35Q348.06 145.17 348.06 136.66L348.06 136.66L348.06 94.90Q348.06 89.97 347.33 87.65Q346.60 85.32 344.47 84.45Q342.34 83.59 338.09 83.46L338.09 83.46L338.09 80.80Q341.41 80.93 347.06 81.06Q352.72 81.20 358.83 81.20L358.83 81.20Q364.95 81.20 370.60 81.06Q376.26 80.93 379.98 80.80L379.98 80.80L379.98 83.46Q375.46 83.59 373.13 84.45Q370.80 85.32 370.01 87.65Q369.21 89.97 369.21 94.90L369.21 94.90L369.21 145.04Q369.21 151.69 370.07 156.81Q370.94 161.93 373.00 165.32Q375.06 168.71 378.65 170.44Q382.24 172.17 387.56 172.17L387.56 172.17Q396.87 172.17 402.13 167.78Q407.38 163.39 409.57 155.61Q411.77 147.83 411.77 137.72L411.77 137.72L411.77 102.61Q411.77 95.29 410.84 91.37Q409.91 87.45 407.18 85.72Q404.45 83.99 398.87 83.46L398.87 83.46L398.87 80.80Q401.39 80.93 405.52 81.06Q409.64 81.20 413.23 81.20L413.23 81.20Q416.42 81.20 419.55 81.06Q422.67 80.93 424.80 80.80ZM519.37 80.80L519.37 80.80L519.37 83.46Q515.11 83.99 512.98 85.65Q510.85 87.31 510.12 90.91Q509.39 94.50 509.39 101.01L509.39 101.01L509.39 175.23Q507.79 175.09 506.13 175.09Q504.47 175.09 502.61 175.23L502.61 175.23L444.88 102.08L444.88 153.15Q444.88 160.46 445.68 164.39Q446.48 168.31 449.21 169.97Q451.93 171.64 457.79 172.30L457.79 172.30L457.79 174.96Q455.26 174.70 451.14 174.63Q447.01 174.56 443.42 174.56L443.42 174.56Q440.36 174.56 437.17 174.63Q433.98 174.70 431.85 174.96L431.85 174.96L431.85 172.30Q436.11 171.64 438.23 170.04Q440.36 168.44 441.09 164.79Q441.83 161.13 441.83 154.75L441.83 154.75L441.83 94.90Q441.83 89.97 441.09 87.65Q440.36 85.32 438.17 84.45Q435.97 83.59 431.85 83.46L431.85 83.46L431.85 80.80Q433.98 80.93 437.17 81.06Q440.36 81.20 443.42 81.20L443.42 81.20Q446.61 81.20 449.54 81.06Q452.47 80.93 454.86 80.80L454.86 80.80L506.33 144.24L506.33 102.61Q506.33 95.29 505.53 91.37Q504.73 87.45 502.01 85.72Q499.28 83.99 493.43 83.46L493.43 83.46L493.43 80.80Q495.96 80.93 500.08 81.06Q504.20 81.20 507.79 81.20L507.79 81.20Q510.99 81.20 514.11 81.06Q517.24 80.93 519.37 80.80ZM614.86 80.80L614.86 80.80L614.86 83.32Q610.60 84.26 605.75 87.05Q600.89 89.84 595.57 96.09L595.57 96.09L570.57 125.88L578.28 114.85L609.94 164.19Q611.80 167.25 613.93 169.11Q616.06 170.97 619.51 172.30L619.51 172.30L619.51 174.96Q614.86 174.70 609.14 174.63Q603.42 174.56 598.77 174.56L598.77 174.56Q595.97 174.56 591.98 174.63Q587.99 174.70 581.88 174.96L581.88 174.96L581.88 172.30Q587.33 172.04 588.46 170.77Q589.59 169.51 587.46 166.32L587.46 166.32L568.18 135.06Q566.31 132.00 564.85 130.47Q563.39 128.94 561.92 128.34Q560.46 127.75 558.07 127.61L558.07 127.61L558.07 124.82Q563.92 124.69 568.51 121.63Q573.10 118.57 578.55 112.32L578.55 112.32L586.40 102.88Q591.45 96.89 592.32 92.57Q593.18 88.25 590.59 85.85Q587.99 83.46 582.67 83.32L582.67 83.32L582.67 80.80Q586.00 80.93 588.99 81.00Q591.98 81.06 595.24 81.13Q598.50 81.20 602.36 81.20L602.36 81.20Q606.21 81.20 609.34 81.06Q612.47 80.93 614.86 80.80ZM568.84 80.80L568.84 80.80L568.84 83.46Q564.59 83.59 562.39 84.45Q560.20 85.32 559.53 87.65Q558.87 89.97 558.87 94.90L558.87 94.90L558.87 160.86Q558.87 165.65 559.60 168.05Q560.33 170.44 562.46 171.24Q564.59 172.04 568.84 172.30L568.84 172.30L568.84 174.96Q565.25 174.70 559.80 174.63Q554.34 174.56 548.76 174.56L548.76 174.56Q542.37 174.56 536.72 174.63Q531.07 174.70 527.74 174.96L527.74 174.96L527.74 172.30Q532 172.04 534.13 171.24Q536.26 170.44 536.99 168.05Q537.72 165.65 537.72 160.86L537.72 160.86L537.72 94.90Q537.72 89.97 536.99 87.65Q536.26 85.32 534.06 84.45Q531.87 83.59 527.74 83.46L527.74 83.46L527.74 80.80Q531.07 80.93 536.72 81.06Q542.37 81.20 548.76 81.20L548.76 81.20Q554.34 81.20 559.80 81.06Q565.25 80.93 568.84 80.80ZM693.86 80.80L693.86 80.80Q693.33 86.65 693.13 92.10Q692.93 97.56 692.93 100.48L692.93 100.48Q692.93 103.14 693.06 105.54Q693.20 107.93 693.33 109.53L693.33 109.53L690.27 109.53Q688.94 99.82 686.15 94.16Q683.35 88.51 678.90 86.18Q674.44 83.86 668.46 83.86L668.46 83.86L663.00 83.86Q659.15 83.86 657.15 84.52Q655.16 85.19 654.49 87.18Q653.83 89.18 653.83 93.30L653.83 93.30L653.83 162.46Q653.83 166.58 654.49 168.58Q655.16 170.57 657.15 171.24Q659.15 171.90 663.00 171.90L663.00 171.90L669.52 171.90Q675.51 171.90 680.10 169.31Q684.68 166.72 687.94 160.46Q691.20 154.21 692.93 143.57L692.93 143.57L695.99 143.57Q695.59 147.83 695.59 154.75L695.59 154.75Q695.59 157.80 695.72 163.39Q695.86 168.98 696.52 174.96L696.52 174.96Q689.74 174.70 681.23 174.63Q672.71 174.56 666.06 174.56L666.06 174.56Q662.74 174.56 657.55 174.56Q652.37 174.56 646.38 174.63Q640.39 174.70 634.28 174.76Q628.16 174.83 622.71 174.96L622.71 174.96L622.71 172.30Q626.96 172.04 629.09 171.24Q631.22 170.44 631.95 168.05Q632.68 165.65 632.68 160.86L632.68 160.86L632.68 94.90Q632.68 89.97 631.95 87.65Q631.22 85.32 629.02 84.45Q626.83 83.59 622.71 83.46L622.71 83.46L622.71 80.80Q628.16 80.93 634.28 81.00Q640.39 81.06 646.38 81.13Q652.37 81.20 657.55 81.20Q662.74 81.20 666.06 81.20L666.06 81.20Q672.18 81.20 679.96 81.13Q687.74 81.06 693.86 80.80ZM649.84 126.28L673.11 126.28Q673.11 126.28 673.11 127.61Q673.11 128.94 673.11 128.94L673.11 128.94L649.84 128.94Q649.84 128.94 649.84 127.61Q649.84 126.28 649.84 126.28L649.84 126.28ZM673.91 108.73L676.97 108.73Q676.44 116.31 676.50 120.30Q676.57 124.29 676.57 127.61L676.57 127.61Q676.57 130.94 676.70 134.93Q676.84 138.92 677.37 146.50L677.37 146.50L674.31 146.50Q673.64 141.84 671.85 137.85Q670.05 133.86 666.73 131.40Q663.40 128.94 658.08 128.94L658.08 128.94L658.08 126.28Q662.07 126.28 664.87 124.62Q667.66 122.96 669.46 120.23Q671.25 117.51 672.31 114.45Q673.38 111.39 673.91 108.73L673.91 108.73Z" stroke-width="0"/>
    </g>
  </svg></g><!--ITEM: Text 2--><g transform="translate(-87.0 207.0) rotate(0.0 353.5 252.5)  scale(1.0 1.0)"><svg width="707.0" height="505.0" viewBox="0.0 0.0 707.0 505.0"><g transform="translate(133 133)">
      <path fill="#0A0000" stroke="#0A0000" d="M68.76 79.07L68.76 79.07Q76.61 79.07 80.86 80.73Q85.12 82.39 88.18 84.26L88.18 84.26Q89.78 85.19 90.77 85.65Q91.77 86.12 92.70 86.12L92.70 86.12Q94.03 86.12 94.63 84.65Q95.23 83.19 95.63 80.27L95.63 80.27L98.69 80.27Q98.55 82.79 98.35 86.32Q98.15 89.84 98.09 95.56Q98.02 101.28 98.02 110.59L98.02 110.59L94.96 110.59Q94.43 103.67 91.77 97.16Q89.11 90.64 84.26 86.45Q79.40 82.26 72.35 82.26L72.35 82.26Q65.97 82.26 61.84 85.85Q57.72 89.44 57.72 95.83L57.72 95.83Q57.72 101.15 60.38 104.94Q63.04 108.73 68.16 112.32Q73.28 115.91 80.60 120.96L80.60 120.96Q86.98 125.09 92.04 129.21Q97.09 133.33 100.15 138.52Q103.21 143.71 103.21 150.89L103.21 150.89Q103.21 159.67 98.62 165.39Q94.03 171.10 86.58 173.96Q79.14 176.82 70.22 176.82L70.22 176.82Q61.98 176.82 57.06 175.23Q52.14 173.63 48.81 171.90L48.81 171.90Q45.89 170.04 44.29 170.04L44.29 170.04Q42.96 170.04 42.36 171.50Q41.76 172.97 41.36 175.89L41.36 175.89L38.30 175.89Q38.57 172.70 38.64 168.44Q38.70 164.19 38.77 157.34Q38.84 150.49 38.84 139.98L38.84 139.98L41.90 139.98Q42.43 148.76 44.89 156.41Q47.35 164.06 52.47 168.71Q57.59 173.37 66.10 173.37L66.10 173.37Q70.76 173.37 74.41 171.70Q78.07 170.04 80.33 166.72Q82.59 163.39 82.59 158.47L82.59 158.47Q82.59 152.88 80.00 148.76Q77.41 144.64 72.95 141.05Q68.50 137.46 62.64 133.73L62.64 133.73Q56.39 129.61 50.94 125.49Q45.49 121.36 42.23 116.04Q38.97 110.72 38.97 103.41L38.97 103.41Q38.97 95.03 43.16 89.64Q47.35 84.26 54.20 81.66Q61.05 79.07 68.76 79.07ZM155.88 80.53L155.88 80.53L188.19 163.79Q190.06 168.58 192.38 170.37Q194.71 172.17 196.57 172.30L196.57 172.30L196.57 174.96Q192.58 174.70 187.20 174.63Q181.81 174.56 176.36 174.56L176.36 174.56Q170.24 174.56 164.79 174.63Q159.33 174.70 156.14 174.96L156.14 174.96L156.14 172.30Q162.93 172.04 164.72 169.97Q166.52 167.91 163.86 161.13L163.86 161.13L141.25 99.28L143.64 95.83L123.42 148.49Q120.50 155.81 119.90 160.46Q119.30 165.12 120.56 167.65Q121.83 170.17 124.69 171.17Q127.55 172.17 131.54 172.30L131.54 172.30L131.54 174.96Q127.15 174.70 123.16 174.63Q119.17 174.56 115.05 174.56L115.05 174.56Q112.12 174.56 109.53 174.63Q106.93 174.70 104.94 174.96L104.94 174.96L104.94 172.30Q107.73 171.77 110.66 168.71Q113.58 165.65 116.38 158.34L116.38 158.34L146.70 80.53Q148.83 80.66 151.29 80.66Q153.75 80.66 155.88 80.53ZM126.88 136.66L165.19 136.66L165.19 139.32L125.55 139.32L126.88 136.66ZM253.90 174.96L253.90 174.96L253.90 172.30Q258.15 172.04 260.28 171.24Q262.41 170.44 263.14 168.05Q263.87 165.65 263.87 160.86L263.87 160.86L263.87 94.90Q263.87 89.97 263.14 87.65Q262.41 85.32 260.21 84.45Q258.02 83.59 253.90 83.46L253.90 83.46L253.90 80.80Q257.49 80.93 263.27 81.06Q269.06 81.20 274.78 81.20L274.78 81.20Q280.90 81.20 286.28 81.06Q291.67 80.93 294.99 80.80L294.99 80.80L294.99 83.46Q290.74 83.59 288.54 84.45Q286.35 85.32 285.68 87.65Q285.02 89.97 285.02 94.90L285.02 94.90L285.02 160.86Q285.02 165.65 285.75 168.05Q286.48 170.44 288.61 171.24Q290.74 172.04 294.99 172.30L294.99 172.30L294.99 174.96Q291.67 174.70 286.28 174.63Q280.90 174.56 274.78 174.56L274.78 174.56Q269.06 174.56 263.27 174.63Q257.49 174.70 253.90 174.96ZM197.50 174.96L197.50 174.96L197.50 172.30Q201.76 172.04 203.89 171.24Q206.02 170.44 206.75 168.05Q207.48 165.65 207.48 160.86L207.48 160.86L207.48 94.90Q207.48 89.97 206.75 87.65Q206.02 85.32 203.82 84.45Q201.63 83.59 197.50 83.46L197.50 83.46L197.50 80.80Q200.96 80.93 206.48 81.06Q212.00 81.20 218.52 81.20L218.52 81.20Q224.11 81.20 229.56 81.06Q235.01 80.93 238.60 80.80L238.60 80.80L238.60 83.46Q234.35 83.59 232.15 84.45Q229.96 85.32 229.29 87.65Q228.63 89.97 228.63 94.90L228.63 94.90L228.63 160.86Q228.63 165.65 229.36 168.05Q230.09 170.44 232.22 171.24Q234.35 172.04 238.60 172.30L238.60 172.30L238.60 174.96Q235.01 174.70 229.56 174.63Q224.11 174.56 218.52 174.56L218.52 174.56Q212.00 174.56 206.48 174.63Q200.96 174.70 197.50 174.96ZM272.52 128.94L219.98 128.94L219.98 126.28L272.52 126.28L272.52 128.94ZM345.00 80.80L345.00 80.80L345.00 83.46Q340.75 83.59 338.55 84.45Q336.36 85.32 335.69 87.65Q335.03 89.97 335.03 94.90L335.03 94.90L335.03 160.86Q335.03 165.65 335.76 168.05Q336.49 170.44 338.62 171.24Q340.75 172.04 345.00 172.30L345.00 172.30L345.00 174.96Q341.41 174.70 335.96 174.63Q330.51 174.56 324.92 174.56L324.92 174.56Q318.40 174.56 312.88 174.63Q307.36 174.70 303.91 174.96L303.91 174.96L303.91 172.30Q308.16 172.04 310.29 171.24Q312.42 170.44 313.15 168.05Q313.88 165.65 313.88 160.86L313.88 160.86L313.88 94.90Q313.88 89.97 313.15 87.65Q312.42 85.32 310.22 84.45Q308.03 83.59 303.91 83.46L303.91 83.46L303.91 80.80Q307.36 80.93 312.88 81.06Q318.40 81.20 324.92 81.20L324.92 81.20Q330.51 81.20 335.96 81.06Q341.41 80.93 345.00 80.80ZM395.81 80.80L395.81 80.80L395.81 83.46Q391.29 83.59 388.96 84.45Q386.63 85.32 385.83 87.65Q385.04 89.97 385.04 94.90L385.04 94.90L385.04 162.46Q385.04 166.58 385.63 168.58Q386.23 170.57 388.03 171.24Q389.82 171.90 393.41 171.90L393.41 171.90L399.93 171.90Q404.45 171.90 408.44 169.77Q412.43 167.65 415.63 163.72Q418.82 159.80 420.95 154.35Q423.07 148.89 424.14 142.24L424.14 142.24L427.20 142.24Q426.80 146.77 426.80 153.95L426.80 153.95Q426.80 157.01 426.93 162.86Q427.06 168.71 427.73 174.96L427.73 174.96Q420.95 174.70 412.43 174.63Q403.92 174.56 397.27 174.56L397.27 174.56Q393.95 174.56 388.76 174.56Q383.57 174.56 377.59 174.63Q371.60 174.70 365.48 174.76Q359.37 174.83 353.91 174.96L353.91 174.96L353.91 172.30Q358.17 172.04 360.30 171.24Q362.43 170.44 363.16 168.05Q363.89 165.65 363.89 160.86L363.89 160.86L363.89 94.90Q363.89 89.97 363.16 87.65Q362.43 85.32 360.23 84.45Q358.04 83.59 353.91 83.46L353.91 83.46L353.91 80.80Q357.24 80.93 362.89 81.06Q368.54 81.20 374.93 81.20L374.93 81.20Q380.78 81.20 386.43 81.06Q392.08 80.93 395.81 80.80Z" stroke-width="0"/>
    </g>
  </svg></g></svg>