<svg xmlns="http://www.w3.org/2000/svg" version="1.1" viewBox="0 0 1200 800" width="1200" height="800">
<defs/><!--ITEM: Text 1--><g transform="translate(500.0 270.0) rotate(0.0 243.0 133.0)  scale(1.0 1.0)"><svg width="486.0" height="266.0" viewBox="0.0 0.0 486.0 266.0"><g transform="translate(70 70)">
      <path fill="#E5261F" stroke="#E5261F" d="M45.83 41.62L45.83 41.62Q49.96 41.62 52.20 42.49Q54.44 43.37 56.05 44.35L56.05 44.35Q56.89 44.84 57.42 45.08Q57.94 45.33 58.43 45.33L58.43 45.33Q59.13 45.33 59.45 44.56Q59.76 43.79 59.97 42.25L59.97 42.25L61.58 42.25Q61.51 43.58 61.41 45.43Q61.30 47.29 61.27 50.30Q61.23 53.31 61.23 58.21L61.23 58.21L59.62 58.21Q59.34 54.57 57.94 51.14Q56.54 47.71 53.99 45.50Q51.43 43.30 47.72 43.30L47.72 43.30Q44.36 43.30 42.19 45.19Q40.02 47.08 40.02 50.44L40.02 50.44Q40.02 53.24 41.42 55.23Q42.82 57.23 45.52 59.12Q48.21 61.01 52.06 63.67L52.06 63.67Q55.42 65.84 58.08 68.01Q60.74 70.18 62.35 72.91Q63.96 75.64 63.96 79.42L63.96 79.42Q63.96 84.04 61.55 87.05Q59.13 90.06 55.21 91.56Q51.29 93.07 46.60 93.07L46.60 93.07Q42.26 93.07 39.67 92.23Q37.08 91.39 35.33 90.48L35.33 90.48Q33.79 89.50 32.95 89.50L32.95 89.50Q32.25 89.50 31.94 90.27Q31.62 91.04 31.41 92.58L31.41 92.58L29.80 92.58Q29.94 90.90 29.98 88.66Q30.01 86.42 30.05 82.81Q30.08 79.21 30.08 73.68L30.08 73.68L31.69 73.68Q31.97 78.30 33.27 82.32Q34.56 86.35 37.26 88.80Q39.95 91.25 44.43 91.25L44.43 91.25Q46.88 91.25 48.81 90.37Q50.73 89.50 51.92 87.75Q53.11 86.00 53.11 83.41L53.11 83.41Q53.11 80.47 51.75 78.30Q50.38 76.13 48.04 74.24Q45.69 72.34 42.61 70.39L42.61 70.39Q39.32 68.22 36.45 66.05Q33.58 63.88 31.87 61.08Q30.15 58.28 30.15 54.43L30.15 54.43Q30.15 50.02 32.36 47.18Q34.56 44.35 38.17 42.98Q41.77 41.62 45.83 41.62ZM91.68 42.39L91.68 42.39L108.69 86.21Q109.67 88.73 110.90 89.67Q112.12 90.62 113.10 90.69L113.10 90.69L113.10 92.09Q111.00 91.95 108.17 91.91Q105.33 91.88 102.46 91.88L102.46 91.88Q99.24 91.88 96.37 91.91Q93.50 91.95 91.82 92.09L91.82 92.09L91.82 90.69Q95.39 90.55 96.34 89.46Q97.28 88.38 95.88 84.81L95.88 84.81L83.98 52.26L85.24 50.44L74.60 78.16Q73.06 82.01 72.75 84.46Q72.43 86.91 73.10 88.24Q73.76 89.57 75.27 90.09Q76.77 90.62 78.87 90.69L78.87 90.69L78.87 92.09Q76.56 91.95 74.46 91.91Q72.36 91.88 70.19 91.88L70.19 91.88Q68.65 91.88 67.29 91.91Q65.92 91.95 64.87 92.09L64.87 92.09L64.87 90.69Q66.34 90.41 67.88 88.80Q69.42 87.19 70.89 83.34L70.89 83.34L86.85 42.39Q87.97 42.46 89.27 42.46Q90.56 42.46 91.68 42.39ZM76.42 71.93L96.58 71.93L96.58 73.33L75.72 73.33L76.42 71.93ZM135.64 42.53L135.64 42.53L135.64 43.93Q133.26 44.00 132.04 44.45Q130.81 44.91 130.39 46.13Q129.97 47.36 129.97 49.95L129.97 49.95L129.97 85.51Q129.97 87.68 130.29 88.73Q130.60 89.78 131.55 90.13Q132.49 90.48 134.38 90.48L134.38 90.48L137.81 90.48Q140.19 90.48 142.29 89.36Q144.39 88.24 146.07 86.17Q147.75 84.11 148.87 81.24Q149.99 78.37 150.55 74.87L150.55 74.87L152.16 74.87Q151.95 77.25 151.95 81.03L151.95 81.03Q151.95 82.64 152.02 85.72Q152.09 88.80 152.44 92.09L152.44 92.09Q148.87 91.95 144.39 91.91Q139.91 91.88 136.41 91.88L136.41 91.88Q134.66 91.88 131.93 91.88Q129.20 91.88 126.05 91.91Q122.90 91.95 119.68 91.98Q116.46 92.02 113.59 92.09L113.59 92.09L113.59 90.69Q115.83 90.55 116.95 90.13Q118.07 89.71 118.46 88.45Q118.84 87.19 118.84 84.67L118.84 84.67L118.84 49.95Q118.84 47.36 118.46 46.13Q118.07 44.91 116.92 44.45Q115.76 44.00 113.59 43.93L113.59 43.93L113.59 42.53Q115.34 42.60 118.32 42.67Q121.29 42.74 124.65 42.74L124.65 42.74Q127.73 42.74 130.71 42.67Q133.68 42.60 135.64 42.53ZM200.60 42.53L200.60 42.53L200.60 43.93Q198.36 44.21 197.21 45.08Q196.05 45.96 195.70 47.85Q195.35 49.74 195.35 53.17L195.35 53.17L195.35 71.72Q195.35 76.27 194.72 80.05Q194.09 83.83 192.48 86.56L192.48 86.56Q190.66 89.57 187.16 91.32Q183.66 93.07 178.27 93.07L178.27 93.07Q175.05 93.07 171.69 92.33Q168.33 91.60 165.67 89.57L165.67 89.57Q163.43 87.68 162.24 85.30Q161.05 82.92 160.63 79.66Q160.21 76.41 160.21 71.93L160.21 71.93L160.21 49.95Q160.21 47.36 159.83 46.13Q159.44 44.91 158.32 44.45Q157.20 44.00 154.96 43.93L154.96 43.93L154.96 42.53Q156.71 42.60 159.69 42.67Q162.66 42.74 165.88 42.74L165.88 42.74Q169.10 42.74 172.08 42.67Q175.05 42.60 177.01 42.53L177.01 42.53L177.01 43.93Q174.63 44.00 173.41 44.45Q172.18 44.91 171.76 46.13Q171.34 47.36 171.34 49.95L171.34 49.95L171.34 76.34Q171.34 79.84 171.80 82.53Q172.25 85.23 173.34 87.01Q174.42 88.80 176.31 89.71Q178.20 90.62 181.00 90.62L181.00 90.62Q185.90 90.62 188.67 88.31Q191.43 86.00 192.59 81.90Q193.74 77.81 193.74 72.49L193.74 72.49L193.74 54.01Q193.74 50.16 193.25 48.09Q192.76 46.03 191.33 45.12Q189.89 44.21 186.95 43.93L186.95 43.93L186.95 42.53Q188.28 42.60 190.45 42.67Q192.62 42.74 194.51 42.74L194.51 42.74Q196.19 42.74 197.84 42.67Q199.48 42.60 200.60 42.53ZM250.37 42.53L250.37 42.53L250.37 43.93Q248.13 44.21 247.01 45.08Q245.89 45.96 245.51 47.85Q245.12 49.74 245.12 53.17L245.12 53.17L245.12 92.23Q244.28 92.16 243.41 92.16Q242.53 92.16 241.55 92.23L241.55 92.23L211.17 53.73L211.17 80.61Q211.17 84.46 211.59 86.52Q212.01 88.59 213.45 89.46Q214.88 90.34 217.96 90.69L217.96 90.69L217.96 92.09Q216.63 91.95 214.46 91.91Q212.29 91.88 210.40 91.88L210.40 91.88Q208.79 91.88 207.11 91.91Q205.43 91.95 204.31 92.09L204.31 92.09L204.31 90.69Q206.55 90.34 207.67 89.50Q208.79 88.66 209.18 86.73Q209.56 84.81 209.56 81.45L209.56 81.45L209.56 49.95Q209.56 47.36 209.18 46.13Q208.79 44.91 207.64 44.45Q206.48 44.00 204.31 43.93L204.31 43.93L204.31 42.53Q205.43 42.60 207.11 42.67Q208.79 42.74 210.40 42.74L210.40 42.74Q212.08 42.74 213.62 42.67Q215.16 42.60 216.42 42.53L216.42 42.53L243.51 75.92L243.51 54.01Q243.51 50.16 243.09 48.09Q242.67 46.03 241.24 45.12Q239.80 44.21 236.72 43.93L236.72 43.93L236.72 42.53Q238.05 42.60 240.22 42.67Q242.39 42.74 244.28 42.74L244.28 42.74Q245.96 42.74 247.61 42.67Q249.25 42.60 250.37 42.53ZM300.63 42.53L300.63 42.53L300.63 43.86Q298.39 44.35 295.84 45.82Q293.28 47.29 290.48 50.58L290.48 50.58L277.32 66.26L281.38 60.45L298.04 86.42Q299.02 88.03 300.14 89.01Q301.26 89.99 303.08 90.69L303.08 90.69L303.08 92.09Q300.63 91.95 297.62 91.91Q294.61 91.88 292.16 91.88L292.16 91.88Q290.69 91.88 288.59 91.91Q286.49 91.95 283.27 92.09L283.27 92.09L283.27 90.69Q286.14 90.55 286.74 89.88Q287.33 89.22 286.21 87.54L286.21 87.54L276.06 71.09Q275.08 69.48 274.31 68.67Q273.54 67.87 272.77 67.55Q272.00 67.24 270.74 67.17L270.74 67.17L270.74 65.70Q273.82 65.63 276.24 64.02Q278.65 62.41 281.52 59.12L281.52 59.12L285.65 54.15Q288.31 51.00 288.77 48.72Q289.22 46.45 287.86 45.19Q286.49 43.93 283.69 43.86L283.69 43.86L283.69 42.53Q285.44 42.60 287.02 42.63Q288.59 42.67 290.31 42.70Q292.02 42.74 294.05 42.74L294.05 42.74Q296.08 42.74 297.73 42.67Q299.37 42.60 300.63 42.53ZM276.41 42.53L276.41 42.53L276.41 43.93Q274.17 44.00 273.02 44.45Q271.86 44.91 271.51 46.13Q271.16 47.36 271.16 49.95L271.16 49.95L271.16 84.67Q271.16 87.19 271.55 88.45Q271.93 89.71 273.05 90.13Q274.17 90.55 276.41 90.69L276.41 90.69L276.41 92.09Q274.52 91.95 271.65 91.91Q268.78 91.88 265.84 91.88L265.84 91.88Q262.48 91.88 259.51 91.91Q256.53 91.95 254.78 92.09L254.78 92.09L254.78 90.69Q257.02 90.55 258.14 90.13Q259.26 89.71 259.65 88.45Q260.03 87.19 260.03 84.67L260.03 84.67L260.03 49.95Q260.03 47.36 259.65 46.13Q259.26 44.91 258.11 44.45Q256.95 44.00 254.78 43.93L254.78 43.93L254.78 42.53Q256.53 42.60 259.51 42.67Q262.48 42.74 265.84 42.74L265.84 42.74Q268.78 42.74 271.65 42.67Q274.52 42.60 276.41 42.53ZM342.21 42.53L342.21 42.53Q341.93 45.61 341.83 48.48Q341.72 51.35 341.72 52.89L341.72 52.89Q341.72 54.29 341.79 55.55Q341.86 56.81 341.93 57.65L341.93 57.65L340.32 57.65Q339.62 52.54 338.15 49.56Q336.68 46.59 334.34 45.36Q331.99 44.14 328.84 44.14L328.84 44.14L325.97 44.14Q323.94 44.14 322.89 44.49Q321.84 44.84 321.49 45.89Q321.14 46.94 321.14 49.11L321.14 49.11L321.14 85.51Q321.14 87.68 321.49 88.73Q321.84 89.78 322.89 90.13Q323.94 90.48 325.97 90.48L325.97 90.48L329.40 90.48Q332.55 90.48 334.97 89.11Q337.38 87.75 339.10 84.46Q340.81 81.17 341.72 75.56L341.72 75.56L343.33 75.56Q343.12 77.81 343.12 81.45L343.12 81.45Q343.12 83.06 343.19 86.00Q343.26 88.94 343.61 92.09L343.61 92.09Q340.04 91.95 335.56 91.91Q331.08 91.88 327.58 91.88L327.58 91.88Q325.83 91.88 323.10 91.88Q320.37 91.88 317.22 91.91Q314.07 91.95 310.85 91.98Q307.63 92.02 304.76 92.09L304.76 92.09L304.76 90.69Q307.00 90.55 308.12 90.13Q309.24 89.71 309.63 88.45Q310.01 87.19 310.01 84.67L310.01 84.67L310.01 49.95Q310.01 47.36 309.63 46.13Q309.24 44.91 308.09 44.45Q306.93 44.00 304.76 43.93L304.76 43.93L304.76 42.53Q307.63 42.60 310.85 42.63Q314.07 42.67 317.22 42.70Q320.37 42.74 323.10 42.74Q325.83 42.74 327.58 42.74L327.58 42.74Q330.80 42.74 334.90 42.70Q338.99 42.67 342.21 42.53ZM319.04 66.47L331.29 66.47Q331.29 66.47 331.29 67.17Q331.29 67.87 331.29 67.87L331.29 67.87L319.04 67.87Q319.04 67.87 319.04 67.17Q319.04 66.47 319.04 66.47L319.04 66.47ZM331.71 57.23L333.32 57.23Q333.04 61.22 333.08 63.32Q333.11 65.42 333.11 67.17L333.11 67.17Q333.11 68.92 333.18 71.02Q333.25 73.12 333.53 77.11L333.53 77.11L331.92 77.11Q331.57 74.66 330.63 72.56Q329.68 70.46 327.93 69.16Q326.18 67.87 323.38 67.87L323.38 67.87L323.38 66.47Q325.48 66.47 326.95 65.59Q328.42 64.72 329.37 63.28Q330.31 61.85 330.87 60.24Q331.43 58.63 331.71 57.23L331.71 57.23Z" stroke-width="0"/>
    </g>
  </svg></g><!--ITEM: Text 2--><g transform="translate(269.0 270.0) rotate(0.0 202.5 133.0)  scale(1.0 1.0)"><svg width="405.0" height="266.0" viewBox="0.0 0.0 405.0 266.0"><g transform="translate(70 70)">
      <path fill="#0A0000" stroke="#0A0000" d="M36.19 41.62L36.19 41.62Q40.32 41.62 42.56 42.49Q44.80 43.37 46.41 44.35L46.41 44.35Q47.25 44.84 47.78 45.08Q48.30 45.33 48.79 45.33L48.79 45.33Q49.49 45.33 49.81 44.56Q50.12 43.79 50.33 42.25L50.33 42.25L51.94 42.25Q51.87 43.58 51.77 45.43Q51.66 47.29 51.63 50.30Q51.59 53.31 51.59 58.21L51.59 58.21L49.98 58.21Q49.70 54.57 48.30 51.14Q46.90 47.71 44.35 45.50Q41.79 43.30 38.08 43.30L38.08 43.30Q34.72 43.30 32.55 45.19Q30.38 47.08 30.38 50.44L30.38 50.44Q30.38 53.24 31.78 55.23Q33.18 57.23 35.88 59.12Q38.57 61.01 42.42 63.67L42.42 63.67Q45.78 65.84 48.44 68.01Q51.10 70.18 52.71 72.91Q54.32 75.64 54.32 79.42L54.32 79.42Q54.32 84.04 51.91 87.05Q49.49 90.06 45.57 91.56Q41.65 93.07 36.96 93.07L36.96 93.07Q32.62 93.07 30.03 92.23Q27.44 91.39 25.69 90.48L25.69 90.48Q24.15 89.50 23.31 89.50L23.31 89.50Q22.61 89.50 22.30 90.27Q21.98 91.04 21.77 92.58L21.77 92.58L20.16 92.58Q20.30 90.90 20.34 88.66Q20.37 86.42 20.41 82.81Q20.44 79.21 20.44 73.68L20.44 73.68L22.05 73.68Q22.33 78.30 23.63 82.32Q24.92 86.35 27.62 88.80Q30.31 91.25 34.79 91.25L34.79 91.25Q37.24 91.25 39.17 90.37Q41.09 89.50 42.28 87.75Q43.47 86.00 43.47 83.41L43.47 83.41Q43.47 80.47 42.11 78.30Q40.74 76.13 38.40 74.24Q36.05 72.34 32.97 70.39L32.97 70.39Q29.68 68.22 26.81 66.05Q23.94 63.88 22.23 61.08Q20.51 58.28 20.51 54.43L20.51 54.43Q20.51 50.02 22.72 47.18Q24.92 44.35 28.53 42.98Q32.13 41.62 36.19 41.62ZM82.04 42.39L82.04 42.39L99.05 86.21Q100.03 88.73 101.25 89.67Q102.48 90.62 103.46 90.69L103.46 90.69L103.46 92.09Q101.36 91.95 98.53 91.91Q95.69 91.88 92.82 91.88L92.82 91.88Q89.60 91.88 86.73 91.91Q83.86 91.95 82.18 92.09L82.18 92.09L82.18 90.69Q85.75 90.55 86.70 89.46Q87.64 88.38 86.24 84.81L86.24 84.81L74.34 52.26L75.60 50.44L64.96 78.16Q63.42 82.01 63.11 84.46Q62.79 86.91 63.45 88.24Q64.12 89.57 65.63 90.09Q67.13 90.62 69.23 90.69L69.23 90.69L69.23 92.09Q66.92 91.95 64.82 91.91Q62.72 91.88 60.55 91.88L60.55 91.88Q59.01 91.88 57.65 91.91Q56.28 91.95 55.23 92.09L55.23 92.09L55.23 90.69Q56.70 90.41 58.24 88.80Q59.78 87.19 61.25 83.34L61.25 83.34L77.21 42.39Q78.33 42.46 79.63 42.46Q80.92 42.46 82.04 42.39ZM66.78 71.93L86.94 71.93L86.94 73.33L66.08 73.33L66.78 71.93ZM133.63 92.09L133.63 92.09L133.63 90.69Q135.87 90.55 136.99 90.13Q138.11 89.71 138.50 88.45Q138.88 87.19 138.88 84.67L138.88 84.67L138.88 49.95Q138.88 47.36 138.50 46.13Q138.11 44.91 136.95 44.45Q135.80 44.00 133.63 43.93L133.63 43.93L133.63 42.53Q135.52 42.60 138.56 42.67Q141.61 42.74 144.62 42.74L144.62 42.74Q147.84 42.74 150.68 42.67Q153.51 42.60 155.26 42.53L155.26 42.53L155.26 43.93Q153.02 44.00 151.87 44.45Q150.71 44.91 150.36 46.13Q150.01 47.36 150.01 49.95L150.01 49.95L150.01 84.67Q150.01 87.19 150.39 88.45Q150.78 89.71 151.90 90.13Q153.02 90.55 155.26 90.69L155.26 90.69L155.26 92.09Q153.51 91.95 150.68 91.91Q147.84 91.88 144.62 91.88L144.62 91.88Q141.61 91.88 138.56 91.91Q135.52 91.95 133.63 92.09ZM103.95 92.09L103.95 92.09L103.95 90.69Q106.19 90.55 107.31 90.13Q108.43 89.71 108.81 88.45Q109.20 87.19 109.20 84.67L109.20 84.67L109.20 49.95Q109.20 47.36 108.81 46.13Q108.43 44.91 107.27 44.45Q106.12 44.00 103.95 43.93L103.95 43.93L103.95 42.53Q105.77 42.60 108.67 42.67Q111.58 42.74 115.01 42.74L115.01 42.74Q117.95 42.74 120.82 42.67Q123.69 42.60 125.58 42.53L125.58 42.53L125.58 43.93Q123.34 44.00 122.19 44.45Q121.03 44.91 120.68 46.13Q120.33 47.36 120.33 49.95L120.33 49.95L120.33 84.67Q120.33 87.19 120.72 88.45Q121.10 89.71 122.22 90.13Q123.34 90.55 125.58 90.69L125.58 90.69L125.58 92.09Q123.69 91.95 120.82 91.91Q117.95 91.88 115.01 91.88L115.01 91.88Q111.58 91.88 108.67 91.91Q105.77 91.95 103.95 92.09ZM143.43 67.87L115.78 67.87L115.78 66.47L143.43 66.47L143.43 67.87ZM181.58 42.53L181.58 42.53L181.58 43.93Q179.34 44.00 178.19 44.45Q177.03 44.91 176.68 46.13Q176.33 47.36 176.33 49.95L176.33 49.95L176.33 84.67Q176.33 87.19 176.72 88.45Q177.10 89.71 178.22 90.13Q179.34 90.55 181.58 90.69L181.58 90.69L181.58 92.09Q179.69 91.95 176.82 91.91Q173.95 91.88 171.01 91.88L171.01 91.88Q167.58 91.88 164.67 91.91Q161.77 91.95 159.95 92.09L159.95 92.09L159.95 90.69Q162.19 90.55 163.31 90.13Q164.43 89.71 164.81 88.45Q165.20 87.19 165.20 84.67L165.20 84.67L165.20 49.95Q165.20 47.36 164.81 46.13Q164.43 44.91 163.28 44.45Q162.12 44.00 159.95 43.93L159.95 43.93L159.95 42.53Q161.77 42.60 164.67 42.67Q167.58 42.74 171.01 42.74L171.01 42.74Q173.95 42.74 176.82 42.67Q179.69 42.60 181.58 42.53ZM208.32 42.53L208.32 42.53L208.32 43.93Q205.94 44.00 204.71 44.45Q203.49 44.91 203.07 46.13Q202.65 47.36 202.65 49.95L202.65 49.95L202.65 85.51Q202.65 87.68 202.96 88.73Q203.28 89.78 204.22 90.13Q205.17 90.48 207.06 90.48L207.06 90.48L210.49 90.48Q212.87 90.48 214.97 89.36Q217.07 88.24 218.75 86.17Q220.43 84.11 221.55 81.24Q222.67 78.37 223.23 74.87L223.23 74.87L224.84 74.87Q224.63 77.25 224.63 81.03L224.63 81.03Q224.63 82.64 224.70 85.72Q224.77 88.80 225.12 92.09L225.12 92.09Q221.55 91.95 217.07 91.91Q212.59 91.88 209.09 91.88L209.09 91.88Q207.34 91.88 204.61 91.88Q201.88 91.88 198.73 91.91Q195.58 91.95 192.36 91.98Q189.14 92.02 186.27 92.09L186.27 92.09L186.27 90.69Q188.51 90.55 189.63 90.13Q190.75 89.71 191.13 88.45Q191.52 87.19 191.52 84.67L191.52 84.67L191.52 49.95Q191.52 47.36 191.13 46.13Q190.75 44.91 189.59 44.45Q188.44 44.00 186.27 43.93L186.27 43.93L186.27 42.53Q188.02 42.60 190.99 42.67Q193.97 42.74 197.33 42.74L197.33 42.74Q200.41 42.74 203.38 42.67Q206.36 42.60 208.32 42.53Z" stroke-width="0"/>
    </g>
  </svg></g></svg>